<svg version="1.1" id="Layer_1" xmlns="http://www.w3.org/2000/svg" xmlns:xlink="http://www.w3.org/1999/xlink" x="0px" y="0px"
	 width="100%" viewBox="0 0 459 246" enable-background="new 0 0 459 246" xml:space="preserve">
<path fill="#000000" opacity="1.000000" stroke="none" 
	d="
M278.000000,247.000000 
	C185.333344,247.000000 93.166702,247.000000 1.000037,247.000000 
	C1.000025,165.000031 1.000025,83.000061 1.000012,1.000070 
	C153.999939,1.000047 306.999878,1.000047 459.999878,1.000023 
	C459.999908,82.999931 459.999908,164.999863 459.999939,246.999893 
	C399.500000,247.000000 339.000000,247.000000 278.000000,247.000000 
M137.558228,187.863419 
	C137.777756,187.575500 137.997284,187.287582 138.562592,186.813049 
	C138.778244,186.646179 138.921036,186.430969 139.611816,186.034912 
	C140.097000,185.683273 140.582184,185.331619 141.438324,184.793167 
	C141.672012,184.635895 141.862747,184.437378 142.709564,184.142639 
	C143.257462,183.766098 143.805344,183.389542 144.856369,182.626389 
	C150.721542,176.055313 156.943192,171.998032 166.496536,175.956238 
	C182.134796,182.435577 198.170593,187.947815 213.929657,194.145325 
	C229.083755,200.104889 244.098053,206.419739 259.177429,212.569550 
	C261.371368,213.464310 263.585632,214.309341 266.815125,215.580750 
	C262.749451,219.137222 259.940826,222.437485 256.411316,224.510086 
	C248.485809,229.164139 241.090027,235.003220 231.680176,236.758560 
	C230.711792,236.939209 229.947693,238.214920 229.088776,238.982483 
	C230.236801,239.619675 231.324478,240.457748 232.553055,240.826920 
	C233.445328,241.095001 234.534607,240.810547 235.517975,240.656860 
	C247.843094,238.730881 257.595917,232.017166 267.158142,224.491287 
	C270.323883,221.999741 272.816376,216.976639 279.248505,219.686325 
	C291.516663,224.854660 304.107300,229.405060 316.853638,233.252563 
	C331.878326,237.787781 347.451324,239.915848 363.161621,239.728607 
	C370.304291,239.643478 377.497833,238.422699 384.549164,237.087692 
	C405.897125,233.045898 423.829559,223.888672 433.173737,202.792725 
	C437.404022,193.242279 437.530151,183.527435 432.690521,174.184616 
	C427.614868,164.386124 418.417297,159.856415 408.327454,157.383194 
	C405.582916,156.710464 400.913666,156.090561 399.359375,161.618759 
	C401.755646,161.819687 403.966339,162.522705 405.917603,162.080704 
	C415.274658,159.961166 426.379883,171.336990 428.878723,179.434067 
	C433.381653,194.025177 426.671936,205.482956 416.759460,214.406235 
	C403.125183,226.679916 385.847839,231.879944 367.754333,233.048035 
	C357.927856,233.682404 347.952606,232.653122 338.089935,231.829666 
	C332.705872,231.380127 327.416687,229.794586 322.084747,228.721359 
	C322.676483,227.501892 323.105286,227.167328 323.536499,227.164169 
	C335.458252,227.076797 347.505127,228.087891 359.272034,226.707397 
	C375.796265,224.768753 391.155975,219.062866 402.518433,205.846985 
	C403.384949,204.839081 403.530579,203.211319 404.011292,201.871689 
	C402.532684,202.294189 400.880402,202.428452 399.608826,203.194595 
	C396.140106,205.284500 392.976410,207.904129 389.435516,209.846573 
	C374.017456,218.304520 356.984253,221.170334 339.916901,220.631729 
	C326.377289,220.204483 312.907898,216.569412 299.483521,213.965790 
	C294.259979,212.952728 289.245300,210.862717 283.179718,208.964081 
	C290.903290,200.853638 295.179138,190.475693 307.605865,189.124420 
	C307.605865,189.124420 308.013458,188.987595 308.428162,188.822815 
	C308.687531,188.664566 308.896423,188.455811 309.783447,188.110214 
	C326.269958,180.816360 339.707611,169.743118 350.940094,155.690567 
	C362.302856,141.475067 371.959320,126.422043 376.136414,108.454315 
	C377.904266,100.850060 377.896759,93.170815 370.646210,88.283470 
	C365.851257,85.051392 360.151611,84.953911 354.290009,88.234177 
	C353.562927,88.481567 352.835846,88.728958 351.457611,88.896835 
	C350.994934,89.292450 350.532227,89.688065 349.581268,90.570030 
	C344.125488,95.207886 337.737488,99.121033 333.435120,104.655518 
	C327.172455,112.711647 322.073090,121.747505 317.099670,130.710709 
	C311.350098,141.072678 306.280823,151.811874 300.905884,162.382050 
	C297.184937,169.699509 293.534607,177.055099 289.671509,184.296982 
	C288.186859,187.080139 286.277344,188.549133 282.431396,187.216705 
	C270.872925,183.212296 260.165955,177.551147 250.331665,170.502899 
	C236.191147,160.368408 222.579453,149.497665 208.687286,139.013748 
	C205.940186,136.940613 202.945450,135.195648 199.595871,132.990570 
	C200.864899,132.449768 201.293823,132.116226 201.732925,132.102234 
	C209.665359,131.849503 217.599899,131.452393 225.532028,131.490936 
	C229.431458,131.509857 232.698532,132.672653 232.053131,137.993866 
	C231.778214,140.260498 232.872818,142.693253 233.332367,144.987076 
	C237.715256,145.337402 239.728851,143.310593 240.575409,139.908676 
	C241.917984,134.513367 244.089386,130.998322 250.862869,131.521225 
	C258.390747,132.102386 266.024506,131.261902 273.613708,131.127747 
	C275.908966,131.087158 278.103485,131.390457 277.529755,134.701874 
	C276.741272,139.252655 275.739075,143.793167 275.357178,148.382065 
	C274.572784,157.807327 274.095428,167.343430 278.076721,176.226624 
	C279.155853,178.634430 280.226044,182.404739 284.317963,181.939575 
	C283.554260,176.883331 282.038452,172.026047 282.260803,167.249649 
	C282.735046,157.062500 284.079041,146.914032 285.132690,136.756561 
	C285.550964,132.723969 287.422394,130.414536 291.973969,130.835678 
	C295.244232,131.138275 298.576050,130.968262 301.866852,130.776474 
	C303.562836,130.677643 305.229248,130.071152 306.909027,129.694031 
	C306.829193,129.039383 306.749390,128.384735 306.669556,127.730087 
	C300.550659,127.730087 294.431763,127.730087 287.484009,127.730087 
	C290.951050,118.210426 294.003174,109.963348 296.958588,101.681763 
	C300.722534,91.134598 304.031372,80.407425 308.217743,70.032799 
	C314.184448,55.246162 320.839203,40.738255 327.009369,26.031292 
	C327.837555,24.057240 327.554901,21.617146 327.924225,18.072405 
	C324.983093,19.759964 323.320587,20.309484 322.218964,21.416952 
	C317.786194,25.873228 313.221588,30.253674 309.265442,35.117443 
	C300.341858,46.088299 291.633331,57.239983 283.054047,68.483513 
	C271.979156,82.997665 261.084778,97.650131 250.178467,112.292084 
	C246.406357,117.356232 242.831253,122.567131 238.500076,128.645844 
	C238.064926,126.695610 237.607529,125.718460 237.679596,124.782066 
	C237.984207,120.823410 238.901382,116.860031 238.755920,112.929420 
	C238.456390,104.834503 237.353363,96.769066 237.061554,88.674164 
	C236.504837,73.230339 236.283783,57.774410 235.927078,42.323414 
	C235.903992,41.323875 236.249847,40.140808 235.829514,39.365425 
	C235.155975,38.122948 233.794006,36.133175 233.062195,36.270248 
	C231.412888,36.579197 228.972473,37.713699 228.604568,39.009357 
	C225.860748,48.672508 224.141220,58.656216 220.969223,68.161903 
	C214.354996,87.983078 205.034393,106.571739 193.414673,123.978600 
	C191.703232,126.542404 189.981537,127.276619 186.785431,125.976555 
	C178.433075,122.579094 170.009644,119.219940 161.363007,116.713066 
	C146.819641,112.496559 131.810043,111.815277 116.719704,112.035843 
	C94.826622,112.355827 75.338348,119.755371 57.536652,131.952072 
	C52.433258,135.448639 47.827755,139.743546 43.319485,144.015900 
	C39.218208,147.902527 35.513672,152.215179 31.745062,156.438904 
	C31.039911,157.229233 30.858326,158.486679 30.435122,159.528564 
	C30.857359,159.964493 31.279598,160.400406 31.701836,160.836334 
	C51.928829,140.644928 74.269745,124.242973 103.317001,120.197990 
	C132.032684,116.199181 159.246628,121.192841 186.426193,134.617218 
	C177.536514,144.368225 169.197754,153.610764 160.675949,162.681335 
	C159.990555,163.410873 157.978546,163.275787 156.696274,163.005432 
	C137.858887,159.033707 119.392387,153.439774 99.886147,152.660583 
	C76.266090,151.717072 52.950123,150.837036 31.822102,164.384277 
	C24.344620,169.178833 17.741623,174.451904 13.984080,182.698807 
	C9.824266,191.828659 10.456271,201.312897 16.417189,208.650528 
	C25.923874,220.352798 39.763386,223.787903 54.434189,224.006104 
	C49.574936,221.493179 44.407162,219.753830 39.349339,217.738525 
	C32.670975,215.077530 26.011040,211.819473 22.772812,205.122131 
	C18.835197,196.978302 22.655251,184.749252 30.295582,179.248596 
	C41.468929,171.204346 53.799686,165.822693 67.575096,164.038406 
	C85.809441,161.676575 104.015091,162.527954 122.080048,165.282318 
	C131.299911,166.688049 140.301453,169.525574 149.703583,171.788605 
	C149.121475,172.843933 148.934845,173.546982 148.480728,173.944458 
	C146.108856,176.020508 143.669052,178.018967 140.475464,179.905289 
	C139.807678,180.601074 139.139877,181.296875 137.969727,182.366547 
	C135.050232,184.598862 132.130753,186.831177 128.486694,188.945740 
	C127.955765,189.639389 127.424835,190.333023 126.535774,191.310898 
	C126.535774,191.310898 126.286453,191.694153 125.645470,191.897964 
	C120.010941,193.515488 108.854378,201.666901 108.644058,205.977020 
	C116.732376,200.986633 124.017975,196.491501 131.606537,191.834122 
	C131.794128,191.692719 131.934555,191.514191 132.749191,191.197968 
	C133.318649,190.801346 133.888107,190.404724 134.718124,189.893784 
	C134.880585,189.777313 134.982040,189.621201 135.644196,189.214462 
	C136.116196,188.832977 136.588196,188.451508 137.066132,188.038116 
	C137.066132,188.038116 137.042709,188.052261 137.558228,187.863419 
z"/>
<path fill="#133D55" opacity="1.000000" stroke="none" 
	d="
M126.286453,191.694153 
	C126.286453,191.694153 126.535774,191.310898 126.986633,191.023697 
	C128.028748,190.178833 128.619995,189.621155 129.211258,189.063492 
	C132.130753,186.831177 135.050232,184.598862 138.547974,182.058868 
	C139.835098,181.182266 140.543976,180.613342 141.252869,180.044403 
	C143.669052,178.018967 146.108856,176.020508 148.480728,173.944458 
	C148.934845,173.546982 149.121475,172.843933 149.703583,171.788605 
	C140.301453,169.525574 131.299911,166.688049 122.080048,165.282318 
	C104.015091,162.527954 85.809441,161.676575 67.575096,164.038406 
	C53.799686,165.822693 41.468929,171.204346 30.295582,179.248596 
	C22.655251,184.749252 18.835197,196.978302 22.772812,205.122131 
	C26.011040,211.819473 32.670975,215.077530 39.349339,217.738525 
	C44.407162,219.753830 49.574936,221.493179 54.434189,224.006104 
	C39.763386,223.787903 25.923874,220.352798 16.417189,208.650528 
	C10.456271,201.312897 9.824266,191.828659 13.984080,182.698807 
	C17.741623,174.451904 24.344620,169.178833 31.822102,164.384277 
	C52.950123,150.837036 76.266090,151.717072 99.886147,152.660583 
	C119.392387,153.439774 137.858887,159.033707 156.696274,163.005432 
	C157.978546,163.275787 159.990555,163.410873 160.675949,162.681335 
	C169.197754,153.610764 177.536514,144.368225 186.426193,134.617218 
	C159.246628,121.192841 132.032684,116.199181 103.317001,120.197990 
	C74.269745,124.242973 51.928829,140.644928 31.701836,160.836334 
	C31.279598,160.400406 30.857359,159.964493 30.435122,159.528564 
	C30.858326,158.486679 31.039911,157.229233 31.745062,156.438904 
	C35.513672,152.215179 39.218208,147.902527 43.319485,144.015900 
	C47.827755,139.743546 52.433258,135.448639 57.536652,131.952072 
	C75.338348,119.755371 94.826622,112.355827 116.719704,112.035843 
	C131.810043,111.815277 146.819641,112.496559 161.363007,116.713066 
	C170.009644,119.219940 178.433075,122.579094 186.785431,125.976555 
	C189.981537,127.276619 191.703232,126.542404 193.414673,123.978600 
	C205.034393,106.571739 214.354996,87.983078 220.969223,68.161903 
	C224.141220,58.656216 225.860748,48.672508 228.604568,39.009357 
	C228.972473,37.713699 231.412888,36.579197 233.062195,36.270248 
	C233.794006,36.133175 235.155975,38.122948 235.829514,39.365425 
	C236.249847,40.140808 235.903992,41.323875 235.927078,42.323414 
	C236.283783,57.774410 236.504837,73.230339 237.061554,88.674164 
	C237.353363,96.769066 238.456390,104.834503 238.755920,112.929420 
	C238.901382,116.860031 237.984207,120.823410 237.679596,124.782066 
	C237.607529,125.718460 238.064926,126.695610 238.500076,128.645844 
	C242.831253,122.567131 246.406357,117.356232 250.178467,112.292084 
	C261.084778,97.650131 271.979156,82.997665 283.054047,68.483513 
	C291.633331,57.239983 300.341858,46.088299 309.265442,35.117443 
	C313.221588,30.253674 317.786194,25.873228 322.218964,21.416952 
	C323.320587,20.309484 324.983093,19.759964 327.924225,18.072405 
	C327.554901,21.617146 327.837555,24.057240 327.009369,26.031292 
	C320.839203,40.738255 314.184448,55.246162 308.217743,70.032799 
	C304.031372,80.407425 300.722534,91.134598 296.958588,101.681763 
	C294.003174,109.963348 290.951050,118.210426 287.484009,127.730087 
	C294.431763,127.730087 300.550659,127.730087 306.669556,127.730087 
	C306.749390,128.384735 306.829193,129.039383 306.909027,129.694031 
	C305.229248,130.071152 303.562836,130.677643 301.866852,130.776474 
	C298.576050,130.968262 295.244232,131.138275 291.973969,130.835678 
	C287.422394,130.414536 285.550964,132.723969 285.132690,136.756561 
	C284.079041,146.914032 282.735046,157.062500 282.260803,167.249649 
	C282.038452,172.026047 283.554260,176.883331 284.317963,181.939575 
	C280.226044,182.404739 279.155853,178.634430 278.076721,176.226624 
	C274.095428,167.343430 274.572784,157.807327 275.357178,148.382065 
	C275.739075,143.793167 276.741272,139.252655 277.529755,134.701874 
	C278.103485,131.390457 275.908966,131.087158 273.613708,131.127747 
	C266.024506,131.261902 258.390747,132.102386 250.862869,131.521225 
	C244.089386,130.998322 241.917984,134.513367 240.575409,139.908676 
	C239.728851,143.310593 237.715256,145.337402 233.332367,144.987076 
	C232.872818,142.693253 231.778214,140.260498 232.053131,137.993866 
	C232.698532,132.672653 229.431458,131.509857 225.532028,131.490936 
	C217.599899,131.452393 209.665359,131.849503 201.732925,132.102234 
	C201.293823,132.116226 200.864899,132.449768 199.595871,132.990570 
	C202.945450,135.195648 205.940186,136.940613 208.687286,139.013748 
	C222.579453,149.497665 236.191147,160.368408 250.331665,170.502899 
	C260.165955,177.551147 270.872925,183.212296 282.431396,187.216705 
	C286.277344,188.549133 288.186859,187.080139 289.671509,184.296982 
	C293.534607,177.055099 297.184937,169.699509 300.905884,162.382050 
	C306.280823,151.811874 311.350098,141.072678 317.099670,130.710709 
	C322.073090,121.747505 327.172455,112.711647 333.435120,104.655518 
	C337.737488,99.121033 344.125488,95.207886 350.096252,90.217896 
	C351.110413,89.569298 351.609589,89.272820 352.108765,88.976349 
	C352.835846,88.728958 353.562927,88.481567 354.857727,88.227707 
	C356.289764,89.219025 357.154022,90.216812 357.854950,91.338860 
	C357.082886,91.641243 356.474182,91.819359 355.609619,92.124107 
	C354.864471,92.543900 354.375153,92.837067 353.642761,93.284119 
	C352.666992,94.308578 351.934326,95.179146 350.999390,96.210045 
	C350.536560,96.595535 350.275970,96.820709 350.013306,97.019226 
	C350.011261,96.992577 350.051086,97.028229 349.811829,97.192879 
	C349.053619,97.926140 348.534698,98.494751 347.869629,99.373894 
	C342.849854,107.079636 337.437134,114.182442 333.229584,121.939003 
	C327.009277,133.406113 321.732971,145.381607 315.890167,157.058304 
	C310.802948,167.224884 305.487823,177.277435 300.013550,187.883789 
	C303.438354,186.793335 306.230835,185.904221 309.028900,185.412704 
	C309.041260,186.605728 309.048035,187.401123 309.054810,188.196533 
	C308.896423,188.455811 308.687531,188.664566 308.111359,188.916077 
	C307.581146,189.040161 307.376862,189.101974 307.181732,189.194763 
	C295.179138,190.475693 290.903290,200.853638 283.179718,208.964081 
	C289.245300,210.862717 294.259979,212.952728 299.483521,213.965790 
	C312.907898,216.569412 326.377289,220.204483 339.916901,220.631729 
	C356.984253,221.170334 374.017456,218.304520 389.435516,209.846573 
	C392.976410,207.904129 396.140106,205.284500 399.608826,203.194595 
	C400.880402,202.428452 402.532684,202.294189 404.011292,201.871689 
	C403.530579,203.211319 403.384949,204.839081 402.518433,205.846985 
	C391.155975,219.062866 375.796265,224.768753 359.272034,226.707397 
	C347.505127,228.087891 335.458252,227.076797 323.536499,227.164169 
	C323.105286,227.167328 322.676483,227.501892 322.084747,228.721359 
	C327.416687,229.794586 332.705872,231.380127 338.089935,231.829666 
	C347.952606,232.653122 357.927856,233.682404 367.754333,233.048035 
	C385.847839,231.879944 403.125183,226.679916 416.759460,214.406235 
	C426.671936,205.482956 433.381653,194.025177 428.878723,179.434067 
	C426.379883,171.336990 415.274658,159.961166 405.917603,162.080704 
	C403.966339,162.522705 401.755646,161.819687 399.359375,161.618759 
	C400.913666,156.090561 405.582916,156.710464 408.327454,157.383194 
	C418.417297,159.856415 427.614868,164.386124 432.690521,174.184616 
	C437.530151,183.527435 437.404022,193.242279 433.173737,202.792725 
	C423.829559,223.888672 405.897125,233.045898 384.549164,237.087692 
	C377.497833,238.422699 370.304291,239.643478 363.161621,239.728607 
	C347.451324,239.915848 331.878326,237.787781 316.853638,233.252563 
	C304.107300,229.405060 291.516663,224.854660 279.248505,219.686325 
	C272.816376,216.976639 270.323883,221.999741 267.158142,224.491287 
	C257.595917,232.017166 247.843094,238.730881 235.517975,240.656860 
	C234.534607,240.810547 233.445328,241.095001 232.553055,240.826920 
	C231.324478,240.457748 230.236801,239.619675 229.088776,238.982483 
	C229.947693,238.214920 230.711792,236.939209 231.680176,236.758560 
	C241.090027,235.003220 248.485809,229.164139 256.411316,224.510086 
	C259.940826,222.437485 262.749451,219.137222 266.815125,215.580750 
	C263.585632,214.309341 261.371368,213.464310 259.177429,212.569550 
	C244.098053,206.419739 229.083755,200.104889 213.929657,194.145325 
	C198.170593,187.947815 182.134796,182.435577 166.496536,175.956238 
	C156.943192,171.998032 150.721542,176.055313 144.271362,182.878418 
	C143.127731,183.486160 142.569138,183.841873 142.010529,184.197586 
	C141.862747,184.437378 141.672012,184.635895 140.973755,184.998474 
	C140.003098,185.524979 139.497009,185.846191 138.990936,186.167419 
	C138.921036,186.430969 138.778244,186.646179 138.182587,187.069595 
	C137.549286,187.568176 137.295990,187.810211 137.042709,188.052261 
	C137.042709,188.052261 137.066132,188.038116 136.751984,188.116730 
	C135.966049,188.605377 135.494263,189.015411 135.022491,189.425446 
	C134.982040,189.621201 134.880585,189.777313 134.234131,190.004913 
	C133.176056,190.510208 132.601944,190.904388 132.027847,191.298569 
	C131.934555,191.514191 131.794128,191.692719 130.955933,191.863739 
	C128.965714,191.826950 127.626083,191.760544 126.286453,191.694153 
M252.647018,179.874695 
	C243.842224,173.869293 234.890823,168.065842 226.268982,161.808365 
	C214.988632,153.621399 203.968750,145.075577 192.839325,136.686020 
	C183.421371,146.951004 174.789825,156.358871 165.779251,166.179855 
	C170.221527,167.813446 174.482224,169.443848 178.786850,170.948608 
	C185.604904,173.332047 192.531647,175.424622 199.270996,178.009003 
	C213.604950,183.505783 227.843353,189.251434 242.130142,194.871643 
	C249.544235,197.788239 256.940125,200.758331 264.420807,203.494904 
	C267.564575,204.644928 272.360443,207.024979 273.884308,205.774277 
	C278.369781,202.092957 281.593353,196.874084 284.863251,192.813065 
	C273.672455,188.343430 263.498352,184.279877 252.647018,179.874695 
M274.596008,88.123817 
	C265.445435,101.233757 256.294861,114.343697 246.749298,128.019531 
	C249.180725,128.427979 250.946564,129.015915 252.695053,128.968155 
	C260.495850,128.755081 268.314392,128.594345 276.070923,127.841820 
	C277.699219,127.683846 279.834625,125.373276 280.468658,123.601067 
	C283.513458,115.090569 285.655304,106.238731 288.984009,97.851898 
	C296.145660,79.807823 303.829010,61.970619 311.332916,44.063015 
	C311.928619,42.641506 312.788055,41.330505 313.524933,39.968147 
	C311.292938,40.461788 309.925873,41.418846 308.944824,42.676922 
	C302.976349,50.330929 297.046204,58.016056 291.200287,65.764023 
	C285.753418,72.983116 280.427399,80.293396 274.596008,88.123817 
M229.066376,85.496231 
	C229.066376,79.477913 229.066376,73.459595 229.066376,67.441284 
	C228.481323,67.342651 227.896255,67.244026 227.311203,67.145401 
	C220.168472,89.096642 212.576538,110.829269 197.231400,128.931534 
	C198.373444,129.453964 198.808594,129.832825 199.232315,129.820435 
	C208.791016,129.541199 218.359421,129.373718 227.891663,128.699722 
	C229.021332,128.619843 230.875839,125.696762 230.828827,124.138885 
	C230.449966,111.583847 229.695770,99.040154 229.066376,85.496231 
z"/>
<path fill="#1A4259" opacity="1.000000" stroke="none" 
	d="
M309.419128,188.153381 
	C309.048035,187.401123 309.041260,186.605728 309.196838,185.110306 
	C320.470673,176.265701 333.318939,170.384354 341.011078,157.898865 
	C344.988312,151.443192 350.826599,146.165543 355.287872,139.969604 
	C362.928955,129.357346 368.437408,117.678802 371.163666,104.789696 
	C373.466156,93.904213 368.666565,88.927170 358.018280,91.214600 
	C357.154022,90.216812 356.289764,89.219025 355.112305,88.081230 
	C360.151611,84.953911 365.851257,85.051392 370.646210,88.283470 
	C377.896759,93.170815 377.904266,100.850060 376.136414,108.454315 
	C371.959320,126.422043 362.302856,141.475067 350.940094,155.690567 
	C339.707611,169.743118 326.269958,180.816360 309.419128,188.153381 
z"/>
<path fill="#2C4C61" opacity="1.000000" stroke="none" 
	d="
M125.965958,191.796051 
	C127.626083,191.760544 128.965714,191.826950 130.804459,191.944855 
	C124.017975,196.491501 116.732376,200.986633 108.644058,205.977020 
	C108.854378,201.666901 120.010941,193.515488 125.965958,191.796051 
z"/>
<path fill="#2C4C61" opacity="1.000000" stroke="none" 
	d="
M140.864166,179.974854 
	C140.543976,180.613342 139.835098,181.182266 138.799149,181.871933 
	C139.139877,181.296875 139.807678,180.601074 140.864166,179.974854 
z"/>
<path fill="#2C4C61" opacity="1.000000" stroke="none" 
	d="
M128.848969,189.004608 
	C128.619995,189.621155 128.028748,190.178833 127.165695,190.881592 
	C127.424835,190.333023 127.955765,189.639389 128.848969,189.004608 
z"/>
<path fill="#1A4259" opacity="1.000000" stroke="none" 
	d="
M351.783203,88.936592 
	C351.609589,89.272820 351.110413,89.569298 350.340393,89.974724 
	C350.532227,89.688065 350.994934,89.292450 351.783203,88.936592 
z"/>
<path fill="#2C4C61" opacity="1.000000" stroke="none" 
	d="
M142.360046,184.170105 
	C142.569138,183.841873 143.127731,183.486160 144.019775,183.071716 
	C143.805344,183.389542 143.257462,183.766098 142.360046,184.170105 
z"/>
<path fill="#2C4C61" opacity="1.000000" stroke="none" 
	d="
M139.301376,186.101166 
	C139.497009,185.846191 140.003098,185.524979 140.788269,185.091873 
	C140.582184,185.331619 140.097000,185.683273 139.301376,186.101166 
z"/>
<path fill="#2C4C61" opacity="1.000000" stroke="none" 
	d="
M135.333344,189.319946 
	C135.494263,189.015411 135.966049,188.605377 136.749023,188.132690 
	C136.588196,188.451508 136.116196,188.832977 135.333344,189.319946 
z"/>
<path fill="#2C4C61" opacity="1.000000" stroke="none" 
	d="
M132.388519,191.248260 
	C132.601944,190.904388 133.176056,190.510208 134.103851,190.062073 
	C133.888107,190.404724 133.318649,190.801346 132.388519,191.248260 
z"/>
<path fill="#2C4C61" opacity="1.000000" stroke="none" 
	d="
M137.300476,187.957840 
	C137.295990,187.810211 137.549286,187.568176 138.009705,187.162903 
	C137.997284,187.287582 137.777756,187.575500 137.300476,187.957840 
z"/>
<path fill="#1A4259" opacity="1.000000" stroke="none" 
	d="
M307.393799,189.159592 
	C307.376862,189.101974 307.581146,189.040161 307.903992,188.998474 
	C308.013458,188.987595 307.605865,189.124420 307.393799,189.159592 
z"/>
<path fill="#000000" opacity="1.000000" stroke="none" 
	d="
M252.985626,180.045502 
	C263.498352,184.279877 273.672455,188.343430 284.863251,192.813065 
	C281.593353,196.874084 278.369781,202.092957 273.884308,205.774277 
	C272.360443,207.024979 267.564575,204.644928 264.420807,203.494904 
	C256.940125,200.758331 249.544235,197.788239 242.130142,194.871643 
	C227.843353,189.251434 213.604950,183.505783 199.270996,178.009003 
	C192.531647,175.424622 185.604904,173.332047 178.786850,170.948608 
	C174.482224,169.443848 170.221527,167.813446 165.779251,166.179855 
	C174.789825,156.358871 183.421371,146.951004 192.839325,136.686020 
	C203.968750,145.075577 214.988632,153.621399 226.268982,161.808365 
	C234.890823,168.065842 243.842224,173.869293 252.985626,180.045502 
z"/>
<path fill="#000000" opacity="1.000000" stroke="none" 
	d="
M357.854950,91.338867 
	C368.666565,88.927170 373.466156,93.904213 371.163666,104.789696 
	C368.437408,117.678802 362.928955,129.357346 355.287872,139.969604 
	C350.826599,146.165543 344.988312,151.443192 341.011078,157.898865 
	C333.318939,170.384354 320.470673,176.265701 309.191284,184.712692 
	C306.230835,185.904221 303.438354,186.793335 300.013550,187.883789 
	C305.487823,177.277435 310.802948,167.224884 315.890167,157.058304 
	C321.732971,145.381607 327.009277,133.406113 333.229584,121.939003 
	C337.437134,114.182442 342.849854,107.079636 348.131409,99.236397 
	C349.043213,98.201660 349.547150,97.614944 350.051086,97.028229 
	C350.051086,97.028229 350.011261,96.992577 350.264923,96.926346 
	C350.746277,96.589981 350.973938,96.319839 351.201660,96.049713 
	C351.934326,95.179146 352.666992,94.308578 353.830505,93.439400 
	C354.796051,92.959686 355.330750,92.478584 355.865448,91.997482 
	C356.474182,91.819359 357.082886,91.641243 357.854950,91.338867 
z"/>
<path fill="#000000" opacity="1.000000" stroke="none" 
	d="
M274.822083,87.843674 
	C280.427399,80.293396 285.753418,72.983116 291.200287,65.764023 
	C297.046204,58.016056 302.976349,50.330929 308.944824,42.676922 
	C309.925873,41.418846 311.292938,40.461788 313.524933,39.968147 
	C312.788055,41.330505 311.928619,42.641506 311.332916,44.063015 
	C303.829010,61.970619 296.145660,79.807823 288.984009,97.851898 
	C285.655304,106.238731 283.513458,115.090569 280.468658,123.601067 
	C279.834625,125.373276 277.699219,127.683846 276.070923,127.841820 
	C268.314392,128.594345 260.495850,128.755081 252.695053,128.968155 
	C250.946564,129.015915 249.180725,128.427979 246.749298,128.019531 
	C256.294861,114.343697 265.445435,101.233757 274.822083,87.843674 
z"/>
<path fill="#000000" opacity="1.000000" stroke="none" 
	d="
M229.061310,85.994614 
	C229.695770,99.040154 230.449966,111.583847 230.828827,124.138885 
	C230.875839,125.696762 229.021332,128.619843 227.891663,128.699722 
	C218.359421,129.373718 208.791016,129.541199 199.232315,129.820435 
	C198.808594,129.832825 198.373444,129.453964 197.231400,128.931534 
	C212.576538,110.829269 220.168472,89.096642 227.311203,67.145401 
	C227.896255,67.244026 228.481323,67.342651 229.066376,67.441284 
	C229.066376,73.459595 229.066376,79.477913 229.061310,85.994614 
z"/>
<path fill="#1A4259" opacity="1.000000" stroke="none" 
	d="
M355.609619,92.124100 
	C355.330750,92.478584 354.796051,92.959686 354.073608,93.285515 
	C354.375153,92.837067 354.864471,92.543900 355.609619,92.124100 
z"/>
<path fill="#1A4259" opacity="1.000000" stroke="none" 
	d="
M349.811829,97.192886 
	C349.547150,97.614944 349.043213,98.201660 348.277527,98.925865 
	C348.534698,98.494751 349.053619,97.926140 349.811829,97.192886 
z"/>
<path fill="#1A4259" opacity="1.000000" stroke="none" 
	d="
M350.999390,96.210037 
	C350.973938,96.319839 350.746277,96.589981 350.266968,96.953003 
	C350.275970,96.820709 350.536560,96.595535 350.999390,96.210037 
z"/>
</svg>